<svg width="23" height="23" viewBox="0 0 23 23" fill="none" xmlns="http://www.w3.org/2000/svg">
<path d="M1.27778 12.7778H10.2222V21.7222C10.2222 22.428 10.7942 23 11.5 23C12.2058 23 12.7778 22.428 12.7778 21.7222V12.7778H21.7222C22.428 12.7778 23 12.2058 23 11.5C23 10.7942 22.428 10.2222 21.7222 10.2222H12.7778V1.27778C12.7778 0.572019 12.2058 0 11.5 0C10.7942 0 10.2222 0.572019 10.2222 1.27778V10.2222H1.27778C0.572019 10.2222 0 10.7942 0 11.5C0 12.2058 0.572019 12.7778 1.27778 12.7778Z" fill="white"/>
</svg>
