<svg height='100px' width='100px'  fill="#000000" xmlns="http://www.w3.org/2000/svg" xmlns:xlink="http://www.w3.org/1999/xlink" version="1.1" x="0px" y="0px" viewBox="0 0 32 32" enable-background="new 0 0 32 32" xml:space="preserve"><g><path d="M26.242,4.03L19,2.219V2c0-0.552-0.447-1-1-1h-4c-0.553,0-1,0.448-1,1v0.219L5.758,4.03C5.313,4.141,5,4.541,5,5v16   c0,5.518,9.541,9.494,10.629,9.929C15.748,30.976,15.874,31,16,31s0.252-0.024,0.371-0.071C17.459,30.493,27,26.518,27,21V5   C27,4.541,26.688,4.141,26.242,4.03z M18.965,21.621L16,24.586l-2.965-2.965L13.92,11h4.16L18.965,21.621z M12.414,9l1-1H14h4   h0.586l1,1H12.414z M15,3h2v3h-2V3z M16,28.918C13.177,27.716,7,24.382,7,21v-2h2v-2H7v-2h2v-2H7V5.781l6-1.5V6   c-0.266,0-0.52,0.105-0.707,0.293l-3,3c-0.286,0.286-0.372,0.716-0.217,1.09C9.23,10.756,9.596,11,10,11h1.914l-0.91,10.917   c-0.024,0.293,0.081,0.582,0.289,0.79l4,4C15.488,26.902,15.744,27,16,27s0.512-0.098,0.707-0.293l4-4   c0.208-0.208,0.313-0.497,0.289-0.79L20.086,11H22c0.404,0,0.77-0.244,0.924-0.617c0.155-0.374,0.069-0.804-0.217-1.09l-3-3   C19.52,6.105,19.266,6,19,6V4.281l6,1.5V13h-2v2h2v2h-2v2h2v2C25,24.383,18.823,27.716,16,28.918z"></path></g></svg>