<svg width="30" height="30" viewBox="0 0 30 30" fill="none" xmlns="http://www.w3.org/2000/svg">
<path d="M24.975 6.46201C22.587 4.53961 18.8088 4.21381 18.6468 4.20241C18.5237 4.19228 18.4005 4.22068 18.2943 4.28368C18.1881 4.34668 18.1041 4.44115 18.054 4.55401C17.9819 4.71615 17.9208 4.88292 17.871 5.05321C19.4508 5.32021 21.3912 5.85721 23.1468 6.94681C23.2138 6.98838 23.2719 7.04272 23.3179 7.10675C23.3638 7.17078 23.3968 7.24324 23.4147 7.31999C23.4327 7.39674 23.4354 7.47627 23.4226 7.55405C23.4098 7.63183 23.3819 7.70634 23.3403 7.77331C23.2987 7.84029 23.2444 7.89842 23.1804 7.94439C23.1163 7.99036 23.0439 8.02327 22.9671 8.04124C22.8904 8.0592 22.8108 8.06188 22.7331 8.04911C22.6553 8.03634 22.5808 8.00838 22.5138 7.96681C19.4958 6.09301 15.7266 6.00001 15 6.00001C14.274 6.00001 10.5024 6.09361 7.4862 7.96621C7.41922 8.00778 7.34472 8.03574 7.26694 8.04851C7.18915 8.06128 7.10962 8.0586 7.03287 8.04064C6.87787 8.00435 6.74364 7.90797 6.6597 7.77271C6.57576 7.63745 6.54898 7.47439 6.58527 7.31939C6.62156 7.16439 6.71794 7.03015 6.8532 6.94621C8.6088 5.85961 10.5492 5.32021 12.129 5.05561C12.0378 4.75801 11.955 4.57021 11.949 4.55401C11.8991 4.44035 11.8147 4.34526 11.7078 4.28217C11.6009 4.21908 11.4768 4.19118 11.3532 4.20241C11.1912 4.21441 7.413 4.53961 4.992 6.48781C3.729 7.65661 1.2 14.4912 1.2 20.4C1.2 20.5056 1.2282 20.6064 1.2798 20.6976C3.0234 23.7636 7.7838 24.5646 8.8686 24.6H8.8872C8.98187 24.6003 9.07525 24.5781 9.15972 24.5353C9.24419 24.4926 9.31734 24.4305 9.3732 24.354L10.4694 22.8444C7.5096 22.0806 5.9976 20.7822 5.9112 20.7048C5.79185 20.5995 5.71924 20.451 5.70934 20.2921C5.69943 20.1333 5.75305 19.977 5.8584 19.8576C5.96374 19.7383 6.11218 19.6657 6.27106 19.6557C6.42994 19.6458 6.58625 19.6995 6.7056 19.8048C6.7404 19.8378 9.525 22.2 15 22.2C20.484 22.2 23.2686 19.8282 23.2968 19.8048C23.4165 19.7002 23.5728 19.6474 23.7315 19.658C23.8901 19.6686 24.038 19.7417 24.1428 19.8612C24.1947 19.9201 24.2344 19.9887 24.2598 20.063C24.2851 20.1373 24.2956 20.2159 24.2906 20.2942C24.2856 20.3725 24.2652 20.4491 24.2305 20.5196C24.1959 20.59 24.1477 20.653 24.0888 20.7048C24.0024 20.7822 22.4904 22.0806 19.5306 22.8444L20.6274 24.354C20.6832 24.4304 20.7562 24.4925 20.8406 24.5352C20.925 24.578 21.0182 24.6002 21.1128 24.6H21.1308C22.2168 24.5646 26.9766 23.763 28.7208 20.6976C28.7718 20.6064 28.8 20.5056 28.8 20.4C28.8 14.4912 26.271 7.65721 24.975 6.46201V6.46201ZM11.1 18C9.9396 18 9 16.926 9 15.6C9 14.274 9.9396 13.2 11.1 13.2C12.2604 13.2 13.2 14.274 13.2 15.6C13.2 16.926 12.2604 18 11.1 18ZM18.9 18C17.7396 18 16.8 16.926 16.8 15.6C16.8 14.274 17.7396 13.2 18.9 13.2C20.0604 13.2 21 14.274 21 15.6C21 16.926 20.0604 18 18.9 18Z" fill="white"/>
</svg>
