<svg width="18" height="18" viewBox="0 0 18 18" fill="none" xmlns="http://www.w3.org/2000/svg">
<g clip-path="url(#clip0)">
<path fill-rule="evenodd" clip-rule="evenodd" d="M15.7501 14.0625H15.1873C14.8764 14.0625 14.6251 13.8104 14.6251 13.5006C14.6251 13.1897 14.8764 12.9375 15.1873 12.9375H15.7501C16.3708 12.9375 16.875 12.4344 16.875 11.8125V10.1256C16.875 10.0805 16.8662 10.0355 16.8533 9.99206C16.8489 9.97558 16.841 9.95965 16.8344 9.94264C16.8264 9.92341 16.8193 9.90365 16.8091 9.88494C16.6809 9.62472 16.3666 9.37423 15.9745 9.30226C15.4727 9.11551 14.8017 9.00013 14.0621 9.00013C13.3436 9.00013 12.6908 9.11632 12.1939 9.29815C11.9426 9.33496 11.7215 9.44728 11.5556 9.58847L11.5529 9.58488C11.4614 9.66592 11.342 9.71686 11.2101 9.71686C10.9239 9.71686 10.6916 9.48409 10.6916 9.19817C10.6916 8.99521 10.8089 8.82133 10.9778 8.73646C11.2827 8.51424 11.6529 8.32281 12.0832 8.18025C11.6224 7.72157 11.3175 7.10581 11.2615 6.41748C11.2538 6.3414 11.25 6.26476 11.25 6.18731V4.50006C11.25 3.2575 12.2571 2.25006 13.5002 2.25006H14.6251C15.8674 2.25006 16.8751 3.25753 16.8751 4.50006V6.18731C16.8751 6.49796 16.6229 6.7501 16.3123 6.7501C16.0014 6.7501 15.7501 6.49796 15.7501 6.18731V4.50006C15.7501 3.8785 15.2458 3.37506 14.6251 3.37506H13.5002C12.8786 3.37506 12.3749 3.8785 12.3749 4.50006V6.18731C12.3749 7.11952 13.1308 7.8751 14.0621 7.8751C16.1407 7.8751 17.8385 8.79521 17.9855 9.96239C17.9943 10.0151 18 10.0695 18 10.1256V11.8125C18 13.0556 16.9923 14.0625 15.7501 14.0625ZM9.83658 9.22699C9.83025 9.24651 9.82283 9.26683 9.81352 9.28578C9.81271 9.28634 9.81271 9.28796 9.81215 9.28852H9.81134C9.72014 9.47611 9.5304 9.60658 9.30793 9.60658C8.99701 9.60658 8.74515 9.35444 8.74515 9.0438C8.74515 8.96332 8.76245 8.8864 8.79293 8.81774L8.79128 8.81693C8.92392 8.53016 9.00004 8.2121 9.00004 7.8751C9.00004 7.74987 8.98685 7.62735 8.96734 7.50705C8.9885 7.40569 9.00004 7.29994 9.00004 7.19201V4.90214C9.00004 4.05896 8.32852 3.37503 7.49992 3.37503H6.00033C5.17145 3.37503 4.49993 4.05892 4.49993 4.90214V7.19201C4.49993 7.29994 4.51174 7.40569 4.53262 7.50705C4.51311 7.62735 4.49993 7.74983 4.49993 7.8751C4.49993 9.11766 5.50761 10.1255 6.75014 10.1255C10.3365 10.1255 13.2626 11.4082 13.479 13.0265C13.4914 13.0891 13.5002 13.1534 13.5002 13.2188V14.6256C13.5002 15.8682 12.4925 16.8751 11.25 16.8751H2.25C1.00768 16.8751 0 15.8682 0 14.6256V13.2188C0 13.1534 0.00632813 13.0919 0.0159258 13.0309C0.0889805 12.464 0.496828 11.9416 1.14226 11.5005C1.23374 11.423 1.35018 11.3736 1.47923 11.3736C1.76681 11.3736 1.99997 11.606 1.99997 11.8938C1.99997 12.0778 1.90441 12.2377 1.7602 12.3306L1.76379 12.336C1.35759 12.6074 1.12496 12.9084 1.12496 13.2188V14.6256C1.12496 15.2463 1.62921 15.7501 2.24993 15.7501H11.2499C11.8715 15.7501 12.3749 15.2463 12.3749 14.6256V13.2188C12.3749 12.1311 9.85634 11.2506 6.75007 11.2506C5.84677 11.2506 5.02801 10.8929 4.42241 10.3151C4.26227 10.1624 4.11536 9.99263 3.98791 9.8108C3.86321 9.63351 3.75529 9.44289 3.6663 9.24296C3.66247 9.23582 3.65973 9.22921 3.65614 9.22207C3.61905 9.13721 3.58639 9.04875 3.55616 8.96033C3.54955 8.9403 3.54076 8.92135 3.53447 8.90099C3.50891 8.82217 3.48943 8.74033 3.46992 8.65848C3.4625 8.628 3.45315 8.59833 3.44658 8.56701C3.42707 8.47363 3.41416 8.37804 3.40182 8.28245C3.39964 8.26431 3.39522 8.24673 3.39384 8.22863C3.38147 8.11272 3.37489 7.99463 3.37489 7.87513C3.37489 7.8128 3.38066 7.75289 3.38449 7.69112C3.3801 7.62742 3.37489 7.56449 3.37489 7.49994V4.87528C3.37489 3.42509 4.50865 2.2501 5.90607 2.2501H7.59379C8.99202 2.2501 10.125 3.42509 10.125 4.87528V7.49994C10.125 7.56449 10.12 7.62739 10.1156 7.69112C10.1192 7.75293 10.125 7.8128 10.125 7.87513C10.125 8.35688 10.0192 8.81254 9.83658 9.22699ZM3.65671 10.9687C3.65671 11.2791 3.40457 11.5313 3.09393 11.5313C2.78304 11.5313 2.53174 11.2791 2.53174 10.9687C2.53174 10.6584 2.78304 10.4062 3.09393 10.4062C3.40457 10.4062 3.65671 10.6584 3.65671 10.9687Z" fill="#DA9526"/>
</g>
<defs>
<clipPath id="clip0">
<rect width="18" height="18" fill="white"/>
</clipPath>
</defs>
</svg>
