<svg width="18" height="18" viewBox="0 0 18 18" fill="none" xmlns="http://www.w3.org/2000/svg">
<path fill-rule="evenodd" clip-rule="evenodd" d="M16.3128 10.1253C16.0021 10.1253 15.75 10.3771 15.75 10.6872V10.9688C15.75 11.7455 15.1202 12.375 14.344 12.375C14.0367 12.375 13.7527 12.2767 13.5214 12.1094C13.5208 12.1094 13.5214 12.1094 13.5208 12.1094L12.1827 11.1061C12.1671 11.094 12.1547 11.0847 12.1391 11.0726C11.5985 10.6622 11.25 10.0124 11.25 9.28097V8.15653C11.25 7.37979 10.6205 6.74972 9.84371 6.74972H2.53139C1.75465 6.74972 1.12458 7.37979 1.12458 8.15653V12.094C1.12458 12.7098 1.52311 13.227 2.07492 13.4179C2.09704 13.4698 2.15142 13.5003 2.24975 13.5003C2.66629 13.5003 3.37504 14.1295 3.37504 14.9062V15.469C3.37504 15.6239 3.50082 15.75 3.656 15.75C3.71559 15.75 3.77054 15.7313 3.81639 15.6997C3.81709 15.6997 3.81639 15.7003 3.81639 15.7003L6.18191 13.9263C6.53513 13.6588 6.97539 13.5003 7.4533 13.5003H9.56243C9.87307 13.5003 10.1249 13.7519 10.1249 14.0628C10.1249 14.3729 9.87307 14.6247 9.56243 14.6247H7.59354C7.27193 14.6247 6.97486 14.7326 6.73854 14.9153L4.47933 16.6097H4.47877C4.24723 16.7767 3.96323 16.875 3.65604 16.875C2.8793 16.875 2.24979 16.2458 2.24979 15.469V15.1872C2.24979 14.8771 1.99807 14.6247 1.68729 14.6247C1.6252 14.6247 1.61216 14.5885 1.62823 14.5352C0.68843 14.2655 0 13.4017 0 12.375V7.875C0 6.63216 1.00705 5.62528 2.24975 5.62528H10.1249C11.3675 5.62528 12.3752 6.63219 12.3752 7.875V9.28097C12.3752 9.64983 12.5524 9.97724 12.8262 10.1824L14.1833 11.2003C14.1841 11.2003 14.1828 11.1997 14.1833 11.1997C14.2289 11.2313 14.2844 11.2497 14.344 11.2497C14.4992 11.2497 14.625 11.1239 14.625 10.9688V10.4062C14.625 9.62951 15.3336 9 15.75 9C16.2925 9 16.8747 8.37077 16.8747 7.59403V3.65653C16.8747 2.87951 16.2455 2.25028 15.4687 2.25028H8.15604C7.3793 2.25028 6.74989 2.87951 6.74989 3.65653V3.9375C6.74989 4.24814 6.49818 4.5 6.18725 4.5C5.87647 4.5 5.62475 4.24814 5.62475 3.9375V3.37472C5.62475 2.13216 6.63237 1.125 7.87507 1.125H15.75C16.9928 1.125 18 2.13216 18 3.37472V7.875C18 9.11756 17.1098 10.1253 16.3128 10.1253ZM11.8125 12.375C12.1228 12.375 12.3752 12.6269 12.3752 12.9375C12.3752 13.2484 12.1228 13.5003 11.8125 13.5003C11.5018 13.5003 11.2499 13.2484 11.2499 12.9375C11.2499 12.6269 11.5018 12.375 11.8125 12.375Z" fill="#DA9526"/>
</svg>
