<svg width="18" height="18" viewBox="0 0 18 18" fill="none" xmlns="http://www.w3.org/2000/svg">
<path fill-rule="evenodd" clip-rule="evenodd" d="M15.9013 10.7748L5.40995 17.1035C5.31397 17.1793 5.1942 17.2266 5.06236 17.2266C4.75144 17.2266 4.49972 16.975 4.49972 16.6641C4.49972 16.4515 4.6203 16.2686 4.79429 16.1727L15.3185 9.77505C15.3753 9.73853 15.4314 9.69704 15.4819 9.64652C15.8389 9.28948 15.8389 8.71049 15.4819 8.35358C15.4264 8.29811 15.3652 8.25265 15.3001 8.21352L3.83889 1.2471C3.68933 1.17007 3.52097 1.12528 3.34188 1.12528C2.73888 1.12528 2.24958 1.61416 2.24958 2.21706V14.3438C2.24958 14.6547 1.99786 14.9062 1.68694 14.9062C1.37658 14.9062 1.125 14.6547 1.125 14.3438V2.19301C1.125 0.982195 2.10635 0 3.31787 0C3.71531 0 4.08611 0.10807 4.40771 0.292781L15.8967 7.22282C16.4839 7.59677 16.875 8.25198 16.875 9C16.875 9.74598 16.4861 10.3996 15.9013 10.7748ZM2.81208 16.8756C3.123 16.8756 3.37458 17.1271 3.37458 17.4381C3.37458 17.7484 3.123 18 2.81208 18C2.50186 18 2.24958 17.7484 2.24958 17.4381C2.24958 17.1271 2.50186 16.8756 2.81208 16.8756Z" fill="#DA9526"/>
</svg>
