<svg width="18" height="18" viewBox="0 0 18 18" fill="none" xmlns="http://www.w3.org/2000/svg">
<g clip-path="url(#clip0)">
<path fill-rule="evenodd" clip-rule="evenodd" d="M14.625 11.2499C13.912 11.2499 13.2572 11.0225 12.7139 10.6435C12.7123 10.6457 12.7101 10.6473 12.7079 10.649C12.5936 10.5688 12.4552 10.5204 12.3047 10.5204C12.1102 10.5204 11.9344 10.5984 11.807 10.7259L9.14168 12.6991C9.14224 12.7012 9.14333 12.704 9.14386 12.7062C8.91134 12.8952 8.80808 13.4357 8.8792 13.7268C8.87674 13.7279 8.87562 13.7285 8.87316 13.7301C8.95307 14.0152 8.99951 14.3135 8.99951 14.625C8.99951 16.4888 7.48916 18 5.62475 18C3.76091 18 2.24972 16.4888 2.24972 14.625C2.24972 13.3769 2.92925 12.2898 3.93697 11.7059C3.93697 11.7037 3.93697 11.7015 3.93697 11.6999C4.16138 11.5301 4.34373 11.1994 4.30091 10.9088C4.30309 10.9066 4.30502 10.905 4.30752 10.9033L3.71563 7.97643C3.64943 7.45784 3.35721 6.75278 3.0927 6.7385C3.0927 6.73713 3.0927 6.73657 3.0927 6.73548C1.36012 6.59239 0 5.14382 0 3.37475C0 1.51116 1.51063 0 3.375 0C5.23856 0 6.74975 1.51116 6.74975 3.37475C6.74975 3.68568 6.49818 3.93754 6.18725 3.93754C5.87633 3.93754 5.62475 3.68568 5.62475 3.37475C5.62475 2.13216 4.61756 1.12444 3.375 1.12444C2.13216 1.12444 1.12444 2.13216 1.12444 3.37475C1.12444 4.6176 2.13216 5.62447 3.375 5.62447C3.996 5.62447 4.56975 6.41851 4.78097 7.59322H4.78593L5.40144 10.6385L5.39926 10.6451C5.5775 11.6229 5.08173 12.4008 4.62772 12.6101L4.62414 12.6189C3.88617 12.988 3.375 13.7433 3.375 14.625C3.375 15.8675 4.38191 16.8744 5.62475 16.8744C6.86732 16.8744 7.87504 15.8675 7.87504 14.625C7.87504 14.2712 7.78795 13.9394 7.64184 13.6417L7.652 13.6126C7.63112 13.5769 7.60588 13.545 7.5935 13.4994C7.44026 12.9545 7.6943 12.3738 8.21398 11.9904L8.21507 11.986L11.668 9.42838C12.0311 9.15922 12.682 9.24163 13.3209 9.70907L13.3313 9.71072C13.6972 9.96943 14.1421 10.1249 14.625 10.1249C15.8675 10.1249 16.8744 9.1176 16.8744 7.87504C16.8744 6.63216 15.8675 5.62444 14.625 5.62444C13.8477 5.62444 13.1676 6.02188 12.7633 6.622L12.7524 6.62611C12.4327 7.06996 11.7823 7.32291 11.351 7.16555L11.3379 7.17022L9.17849 6.34296C8.89049 6.22652 8.75095 5.89911 8.86658 5.61073C8.98221 5.32262 9.31032 5.18309 9.59871 5.29871L10.961 5.82138C10.9682 5.80243 10.9759 5.78429 10.983 5.76534C11.0011 5.78074 11.0187 5.79748 11.039 5.81175C11.2395 5.95318 11.8175 5.95733 12.0482 5.67882C12.0553 5.68129 12.0624 5.68431 12.0696 5.68652C12.687 4.9628 13.5994 4.5 14.625 4.5C16.4888 4.5 18 6.01063 18 7.87504C18 9.73877 16.4888 11.2499 14.625 11.2499ZM7.5935 5.62447C7.28258 5.62447 7.03072 5.37289 7.03072 5.06197C7.03072 4.75189 7.28258 4.50004 7.5935 4.50004C7.90414 4.50004 8.156 4.75189 8.156 5.06197C8.15604 5.37289 7.90418 5.62447 7.5935 5.62447Z" fill="#DA9526"/>
</g>
<defs>
<clipPath id="clip0">
<rect width="18" height="18" fill="white"/>
</clipPath>
</defs>
</svg>
